<svg id="wave" style="transform:rotate(0deg); transition: 0.3s" viewBox="0 0 1440 150" version="1.1" xmlns="http://www.w3.org/2000/svg"><defs><linearGradient id="sw-gradient-0" x1="0" x2="0" y1="1" y2="0"><stop stop-color="rgba(249, 197, 229, 1)" offset="0%"></stop><stop stop-color="rgba(252, 161, 220, 1)" offset="100%"></stop></linearGradient></defs><path style="transform:translate(0, 0px); opacity:1" fill="url(#sw-gradient-0)" d="M0,45L20,40C40,35,80,25,120,27.5C160,30,200,45,240,50C280,55,320,50,360,40C400,30,440,15,480,25C520,35,560,70,600,82.5C640,95,680,85,720,77.5C760,70,800,65,840,75C880,85,920,110,960,120C1000,130,1040,125,1080,125C1120,125,1160,130,1200,125C1240,120,1280,105,1320,102.5C1360,100,1400,110,1440,107.5C1480,105,1520,90,1560,72.5C1600,55,1640,35,1680,35C1720,35,1760,55,1800,55C1840,55,1880,35,1920,25C1960,15,2000,15,2040,30C2080,45,2120,75,2160,90C2200,105,2240,105,2280,87.5C2320,70,2360,35,2400,30C2440,25,2480,50,2520,65C2560,80,2600,85,2640,85C2680,85,2720,80,2760,77.5C2800,75,2840,75,2860,75L2880,75L2880,150L2860,150C2840,150,2800,150,2760,150C2720,150,2680,150,2640,150C2600,150,2560,150,2520,150C2480,150,2440,150,2400,150C2360,150,2320,150,2280,150C2240,150,2200,150,2160,150C2120,150,2080,150,2040,150C2000,150,1960,150,1920,150C1880,150,1840,150,1800,150C1760,150,1720,150,1680,150C1640,150,1600,150,1560,150C1520,150,1480,150,1440,150C1400,150,1360,150,1320,150C1280,150,1240,150,1200,150C1160,150,1120,150,1080,150C1040,150,1000,150,960,150C920,150,880,150,840,150C800,150,760,150,720,150C680,150,640,150,600,150C560,150,520,150,480,150C440,150,400,150,360,150C320,150,280,150,240,150C200,150,160,150,120,150C80,150,40,150,20,150L0,150Z"></path><defs><linearGradient id="sw-gradient-1" x1="0" x2="0" y1="1" y2="0"><stop stop-color="rgba(234.106, 196.584, 220.911, 1)" offset="0%"></stop><stop stop-color="rgba(236.383, 181.145, 216.958, 1)" offset="100%"></stop></linearGradient></defs><path style="transform:translate(0, 50px); opacity:0.9" fill="url(#sw-gradient-1)" d="M0,135L20,115C40,95,80,55,120,37.5C160,20,200,25,240,37.5C280,50,320,70,360,70C400,70,440,50,480,55C520,60,560,90,600,107.5C640,125,680,130,720,122.5C760,115,800,95,840,82.5C880,70,920,65,960,62.5C1000,60,1040,60,1080,67.5C1120,75,1160,90,1200,90C1240,90,1280,75,1320,75C1360,75,1400,90,1440,92.5C1480,95,1520,85,1560,77.5C1600,70,1640,65,1680,65C1720,65,1760,70,1800,65C1840,60,1880,45,1920,42.5C1960,40,2000,50,2040,57.5C2080,65,2120,70,2160,77.5C2200,85,2240,95,2280,85C2320,75,2360,45,2400,32.5C2440,20,2480,25,2520,27.5C2560,30,2600,30,2640,42.5C2680,55,2720,80,2760,77.5C2800,75,2840,45,2860,30L2880,15L2880,150L2860,150C2840,150,2800,150,2760,150C2720,150,2680,150,2640,150C2600,150,2560,150,2520,150C2480,150,2440,150,2400,150C2360,150,2320,150,2280,150C2240,150,2200,150,2160,150C2120,150,2080,150,2040,150C2000,150,1960,150,1920,150C1880,150,1840,150,1800,150C1760,150,1720,150,1680,150C1640,150,1600,150,1560,150C1520,150,1480,150,1440,150C1400,150,1360,150,1320,150C1280,150,1240,150,1200,150C1160,150,1120,150,1080,150C1040,150,1000,150,960,150C920,150,880,150,840,150C800,150,760,150,720,150C680,150,640,150,600,150C560,150,520,150,480,150C440,150,400,150,360,150C320,150,280,150,240,150C200,150,160,150,120,150C80,150,40,150,20,150L0,150Z"></path><defs><linearGradient id="sw-gradient-2" x1="0" x2="0" y1="1" y2="0"><stop stop-color="rgba(231.829, 177.656, 212.779, 1)" offset="0%"></stop><stop stop-color="rgba(229.552, 157.765, 204.308, 1)" offset="100%"></stop></linearGradient></defs><path style="transform:translate(0, 100px); opacity:0.8" fill="url(#sw-gradient-2)" d="M0,45L20,60C40,75,80,105,120,102.5C160,100,200,65,240,52.5C280,40,320,50,360,52.5C400,55,440,50,480,45C520,40,560,35,600,35C640,35,680,40,720,50C760,60,800,75,840,80C880,85,920,80,960,72.5C1000,65,1040,55,1080,65C1120,75,1160,105,1200,100C1240,95,1280,55,1320,35C1360,15,1400,15,1440,15C1480,15,1520,15,1560,20C1600,25,1640,35,1680,55C1720,75,1760,105,1800,120C1840,135,1880,135,1920,120C1960,105,2000,75,2040,62.5C2080,50,2120,55,2160,67.5C2200,80,2240,100,2280,92.5C2320,85,2360,50,2400,42.5C2440,35,2480,55,2520,62.5C2560,70,2600,65,2640,55C2680,45,2720,30,2760,35C2800,40,2840,65,2860,77.5L2880,90L2880,150L2860,150C2840,150,2800,150,2760,150C2720,150,2680,150,2640,150C2600,150,2560,150,2520,150C2480,150,2440,150,2400,150C2360,150,2320,150,2280,150C2240,150,2200,150,2160,150C2120,150,2080,150,2040,150C2000,150,1960,150,1920,150C1880,150,1840,150,1800,150C1760,150,1720,150,1680,150C1640,150,1600,150,1560,150C1520,150,1480,150,1440,150C1400,150,1360,150,1320,150C1280,150,1240,150,1200,150C1160,150,1120,150,1080,150C1040,150,1000,150,960,150C920,150,880,150,840,150C800,150,760,150,720,150C680,150,640,150,600,150C560,150,520,150,480,150C440,150,400,150,360,150C320,150,280,150,240,150C200,150,160,150,120,150C80,150,40,150,20,150L0,150Z"></path></svg>